<?xml version="1.0" encoding="utf-8"?><svg width="64" height="686" viewBox="0 0 64 686" xmlns="http://www.w3.org/2000/svg" xmlns:xlink="http://www.w3.org/1999/xlink"><svg viewBox="-1 -1 64 52" width="64" height="52" id="books"><path d="M57.6 15c-.2-2-.3-5.2 1.5-6.3h.2c1.4-.6 2.4-1.2 1.6-2L39.8 0 5.4 5s-4 .5-3.5 6.7c0 3.5 1.2 5.2 2 6l-2.7 1c-.8.8.2 1.4 1.6 2 1.7 1 1.7 4.5 1.4 6.4-6.3 2-4 2.5-4 2.5l1.4.4c-1 .8-2 2.5-1.8 5.8.4 6.3 3.6 6.7 3.6 6.7L26 50l33.7-8.4s2.3-.6-4-2.5c-.2-1.8-.3-5.2 1.5-6.3 1.5-.6 2.5-1.2 1.7-2l-1.6-.6c1-.5 2.5-2 2.7-6.2.3-2.8-.4-4.5-1.3-5.5l3-.7s2-.6-4-2.5zm-28.3 0l5.7-1.2 19.2-4 3-.7c-1 2-1 4.2-.8 5.7v1l-3 .7L29 22.7l.4-7.7zM5 21.2l2.8.5 18.4 4 1.7.3 4.7 1 .2 7.7-25-6.5-2.4-.6v-1C6 25.3 6 23 5 21.2zm-1.2-9.7c0-1.7.3-3 1-3.5.2-.4.7-.5 1-.5H6l15 5 7 2.5-.2 7.6-20.7-6-1-.2H6s-2-.3-2-5zm22.3 35L4.4 40.4c-.2 0-2.2-.2-2.3-5 0-1.6.2-2.8.8-3.4.4-.5.8-.6 1-.6h.4l22 7.6v7.7zm28.5-7.8v1l-27.3 7 .3-7.7 5.8-1.2 1 .2 3-1 15-3.3 3-.6c-1 2-1 4.2-.8 5.7zM56 28.3h-.2l-2 .7L34 34.6V27l6.3-2.2L56 19.5s.8-.2 1.3.4c.6.5 1 1.7 1 3.4-.2 4.7-2.3 5-2.3 5z" fill="#fff"/></svg><svg viewBox="-1 -1 42 42" width="42" height="42" id="coffee" y="52"><path transform="matrix(.0989 0 0 .0854 -2.896 .233)" d="M367.5 232c-5.6 0-11.2.7-16.5 2.2v-2.7c0-13-10.5-23.5-23.5-23.5h-272c-13 0-23.5 10.5-23.5 23.5v112c0 32.6 15.2 64.3 40 83.7v12.3c0 13 10.5 23.5 23.5 23.5h192c13 0 23.5-10.5 23.5-23.5v-12.3c17.5-13.7 30.2-33.6 36.2-55.5 6.5 2.2 13.3 3.3 20.3 3.3 35 0 63.5-28.5 63.5-63.5v-16c0-35-28.5-63.5-63.5-63.5zM351 295.5c0-9 7.4-16.5 16.5-16.5 9 0 16.5 7.4 16.5 16.5v16c0 9-7.4 16.5-16.5 16.5-9 0-16.5-7.4-16.5-16.5v-16zM287.5 448h-192c-4.7 0-8.5-3.8-8.5-8.5V431h209v8.5c0 4.7-3.8 8.5-8.5 8.5zM336 343.5c0 28.4-13.4 56-35 72.5H82c-21.6-16.6-35-44-35-72.5v-112c0-4.7 3.8-8.5 8.5-8.5h272c4.7 0 8.5 3.8 8.5 8.5v112zm80-32c0 26.7-21.8 48.5-48.5 48.5-6 0-11.8-1-17.4-3.2.8-4.4 1-8.8 1-13.3v-5.2c5 3 10.6 4.7 16.6 4.7 17.4 0 31.5-14 31.5-31.5v-16c0-17.4-14-31.5-31.4-31.5-6 0-11.7 1.7-16.5 4.7V250c5.4-2 11-3 16.6-3 26.7 0 48.5 21.8 48.5 48.5v16zM186.4 148.7c-8.2 7.5-18.4 16.8-18.4 34.8 0 4 3.4 7.5 7.5 7.5 4 0 7.5-3.4 7.5-7.5 0-11.4 6-16.8 13.6-23.8 8.2-7.5 18.4-17 18.4-34.8 0-18-10.2-27.6-18.4-35C189 83 183 77.5 183 66s6-17 13.6-23.8c8.2-7.6 18.4-17 18.4-35 0-4-3.4-7.4-7.5-7.4-4 0-7.5 3.4-7.5 7.5 0 11.4-6 17-13.6 23.8-8.2 7.5-18.4 17-18.4 35 0 17.8 10.2 27.2 18.4 34.7 7.6 7 13.6 12.5 13.6 24 0 11.2-6 16.7-13.6 23.7zm48 0c-8.2 7.5-18.4 16.8-18.4 34.8 0 4 3.4 7.5 7.5 7.5 4 0 7.5-3.4 7.5-7.5 0-11.4 6-16.8 13.6-23.8 8.2-7.5 18.4-17 18.4-34.8 0-18-10.2-27.6-18.4-35C237 83 231 77.5 231 66c0-4.2-3.4-7.5-7.5-7.5-4 0-7.5 3.3-7.5 7.5 0 18 10.2 27.3 18.4 34.8 7.6 7 13.6 12.5 13.6 24 0 11.2-6 16.7-13.6 23.7zm-96 0c-8.2 7.5-18.4 16.8-18.4 34.8 0 4 3.4 7.5 7.5 7.5 4 0 7.5-3.4 7.5-7.5 0-11.4 6-16.8 13.6-23.8 8.2-7.5 18.4-17 18.4-34.8 0-18-10.2-27.6-18.4-35C141 83 135 77.5 135 66c0-4.2-3.4-7.5-7.5-7.5-4 0-7.5 3.3-7.5 7.5 0 18 10.2 27.3 18.4 34.8 7.6 7 13.6 12.5 13.6 24 0 11.2-6 16.7-13.6 23.7z" stroke-width="5.4" fill="#3f95ea" stroke="#3f95ea" stroke-linejoin="round"/></svg><svg viewBox="-1 -1 48 48" width="48" height="48" id="direction" y="94"><path d="M38.2 16.2l7.2-6c.3-.3.4-.6.4-.8 0-.3-.2-.5-.4-.7l-7.2-6H22.7V1c0-.4-.3-.8-.8-.8s-1 .4-1 .8v1.6H7c-1.5 0-2.7 1-2.7 2.5v8.6c0 1.4 1.2 2.6 2.7 2.6h14v1.5H8l-7.2 6c-.3.3-.3.6-.3.8 0 .2 0 .5.3.7l7.2 6h13V45c0 .4.5.8 1 .8.4 0 .7-.4.7-.8V31.3h16.6c1.5 0 2.7-1 2.7-2.5v-8.5c0-1.4-1.2-2.6-2.7-2.6H22.7v-1.5h15.5zm2.2 4V29c0 .6-.5 1-1.2 1H8.4l-6.2-5.2 6.2-5.3h31c.5 0 1 .4 1 1zM6 13.7V5c0-.5.3-1 1-1h30.6l6.2 5.3-6.2 5.4H7c-.6 0-1-.5-1-1z" fill="#3f95ea" stroke="#3f95ea" stroke-width=".5" stroke-linecap="round" stroke-linejoin="round"/></svg><svg viewBox="-1 -1 48 48" width="48" height="48" id="direction-white" y="142"><path d="M38.2 16.2l7.2-6c.3-.3.4-.6.4-.8 0-.3-.2-.5-.4-.7l-7.2-6H22.7V1c0-.4-.3-.8-.8-.8s-1 .4-1 .8v1.6H7c-1.5 0-2.7 1-2.7 2.5v8.6c0 1.4 1.2 2.6 2.7 2.6h14v1.5H8l-7.2 6c-.3.3-.3.6-.3.8 0 .2 0 .5.3.7l7.2 6h13V45c0 .4.5.8 1 .8.4 0 .7-.4.7-.8V31.3h16.6c1.5 0 2.7-1 2.7-2.5v-8.5c0-1.4-1.2-2.6-2.7-2.6H22.7v-1.5h15.5zm2.2 4V29c0 .6-.5 1-1.2 1H8.4l-6.2-5.2 6.2-5.3h31c.5 0 1 .4 1 1zM6 13.7V5c0-.5.3-1 1-1h30.6l6.2 5.3-6.2 5.4H7c-.6 0-1-.5-1-1z" fill="#fff" stroke="#fff" stroke-width=".5" stroke-linecap="round" stroke-linejoin="round"/></svg><svg viewBox="-1 -1 27 22" width="27" height="22" id="envelope" y="190"><path d="M21.4.6H3.2c-1.6 0-3 1.4-3 3v13c0 1.8 1.4 3.2 3 3.2h18.2c1.6 0 3-1.4 3-3v-13c0-1.8-1.4-3.2-3-3.2z" fill="none" stroke="#818892" stroke-width=".9" stroke-linejoin="round"/><path d="M22 3.2c-.4-.3-1 .7-9.6 8.8C3.2 3.4 3 2.8 2.7 3.2c-.3.4.3.8 6.7 7-6 5.7-7 6.3-6.7 6.7.4.4 1-.7 7-6.5 1 1 2.7 2.3 2.7 2.3l2.5-2.4c6.2 6.2 6.5 7 7 6.5.3-.5-.4-.8-6.7-7 6-6 7-6.5 6.7-6.8z" fill="#818892" stroke="#818892" stroke-width=".3" stroke-linejoin="round"/></svg><svg viewBox="-1 -1 26 22" width="26" height="22" id="facebook" y="212"><path d="M13.6 3.75h3.14V0H13.6c-2.4 0-4.36 1.96-4.36 4.38v1.87h-2.5V10h2.5v10H13V10h3.1l.64-3.75H13V4.37c0-.33.27-.62.6-.62z" fill="#3f95ea"/></svg><svg viewBox="-1 -1 27 26" width="27" height="26" id="home" y="234"><path d="M21.4 24H15c-.2 0-.4-.2-.4-.5v-6.8h-4.2v6.8c0 .3-.2.5-.5.5H3.5c-.2 0-.5-.2-.5-.5V13c0-.2.4-.5.6-.5.3 0 .6.3.6.5v10h5.2v-6.8c0-.3.2-.5.5-.5h5c.4 0 .6.2.6.5V23h5.2v-9.4c0-.3.2-.6.5-.6s.6.3.6.6v10c0 .2-.4.4-.7.4zm3-11h-.3L12.6 1.2 1 13H0v-1L12 .3c.3-.3.7-.3 1 0l11.8 12c.3.2.3.5 0 .7h-.3zm-4-7.3c-.4 0-.6-.2-.6-.5v-3h-3c-.4 0-.7-.3-.7-.6s.4-.6.7-.6h3.6c.3 0 .5.3.5.6v3.6c0 .3-.2.5-.5.5z" fill="#818892"/></svg><svg viewBox="-1 -1 27 27" width="27" height="27" id="internet" y="260"><g fill="#818892" stroke-width="0" stroke-linecap="round" stroke-linejoin="round"><path d="M20.6 7c1.2 0 2-1 2-2 0-1.3-.8-2.2-2-2.2s-2 1-2 2c0 1.3.8 2.3 2 2.3zm0-3.4c.7 0 1.3.6 1.3 1.3 0 .7-.7 1.2-1.4 1.2s-1.3-.5-1.3-1.3.6-1.4 1.3-1.4z"/><path d="M24.3 8c1.4-1.8 1.2-4.8-.4-6.4C22.2 0 19.7-.2 18 1c-2-.8-3.7-1.3-5.6-1.3h-.3C5.6 0 .2 5.5.2 12.2c0 3.2 1.2 6 3 8.3.2 0 .2.2.3.2 2.2 2.4 5.3 4 8.7 4h.7c6.5-.2 11.8-5.7 12-12.4 0-1.4-.4-2.8-.8-4V8zm-3 11.7c-1-.7-2.2-1.3-3.4-1.8.5-1.7.8-3.5 1-5.3h1l.3.2h.5l.3-.3h3c0 2.7-1 5-2.7 7zM1 12.7h5.2c0 1.8.4 3.6 1 5.2-1.2.4-2.3 1-3.4 1.7-1.6-2-2.6-4.3-2.7-7zm3-8.2c1 .7 2.2 1.3 3.3 1.7-.7 1.8-1 3.7-1 5.6H1C1.3 9 2.4 6.5 4 4.5zM17 8l2.5 3.8H13V7c1 0 2 0 3-.4.3.5.5 1 1 1.5zm-5-1v5H7c0-2 .5-3.7 1.2-5.3 1.2.3 2.6.5 4 .6zM8.6 5.7c1-1.8 2-3.4 3.6-4.8v5.4c-1 0-2.3-.2-3.5-.6zm-.8-.2L4.7 4C6.2 2 8.4 1 11 .6 9.6 2 8.5 3.7 7.7 5.4zM7 12.7h5V17c-1.3 0-2.7.3-4 .7-.6-1.6-1-3.3-1-5zm5 5.2v5.6c-1.5-1.4-2.8-3.2-3.7-5 1.3-.5 2.5-.7 3.8-.7zm1 5.6V18c1.2 0 2.5 0 3.7.5-.8 2-2 3.7-3.7 5zm0-6.6v-4.3h5c0 1.7-.3 3.4-1 5-1.3-.4-2.6-.7-4-.7zM23.3 2.2c1.3 1.3 1.5 3.8.3 5.3l-3 4.3-3-4.3C17 7 16.7 6 16.7 5s.3-2 1-2.8c.8-.8 1.8-1.2 2.8-1.2 1 0 2 .4 2.7 1.2zm-6-.5c-1 1-1.5 2.6-1.3 4-1 .3-2 .5-3 .5V.6c1.5 0 3 .4 4.2 1zm-13 18.6c1-.7 2-1.2 3.2-1.6 1 2 2 3.6 3.6 5-2.6-.3-5-1.5-6.7-3.4zm9.8 3.5c1.5-1.5 2.7-3.2 3.5-5l3.2 1.6c-1.7 1.8-4 3-6.6 3.4zm10-12h-2.3l2-2.7c0 1 .2 2 .3 2.8z"/></g></svg><svg viewBox="-1 -1 44 42" width="44" height="42" id="layers" y="287"><path d="M34.5 16l7.3-4.2L21 .3.2 11.8l7.3 4L.2 20l7.3 4-7.3 4L21 40l20.8-12-7.3-4 7.3-4-7.3-4zM21 2l17.7 9.8-17.7 10-17.7-10L21 2zM9 16.8l12 6.6 12-6.6 5.7 3.2L21 30 3.3 20 9 16.8zM38.8 28L21 38 3.3 28 9 25l12 6.6L33 25l5.7 3z" fill="#3f95ea" stroke="#3f95ea" stroke-width=".5" stroke-linejoin="round"/></svg><svg viewBox="-1 -1 52 48" width="52" height="48" id="parents" y="329"><path d="M46 36.7l-8-3.5c-.2 0-.4-.4-.6-.7h5.4s2.3.2 4-.5c.8-.3 1.3-.8 1.5-1.6.2-.7 0-1.4-.3-2-1.5-2.2-5.2-8-5.3-13.8 0 0-.3-10-10-10-1.5 0-2.8.2-4 .7-.3-.7-.7-1.4-1.3-2-1.6-2-4.4-3-8.2-3-3.7 0-6.4 1-8 3C9 5.4 9 8 9 8.5V13c-.4.6-.7 1.4-.7 2v3.4c0 1 .5 2 1.3 2.6.7 3 2.3 5.3 3 6v2.7c0 .8-.6 1.6-1.3 2l-7.4 4C1.8 37 .3 39.5.3 42.2v3.5H50v-3c0-2.6-1.5-5-3.7-6zM36.7 44H2v-1.8c0-2 1-4 3-5l7.3-4c1.3-.8 2-2 2-3.5v-3.3l-.2-.2s-2-2.5-2.7-6V20l-.3-.2c-.5-.3-.8-.8-.8-1.3v-3.3c0-.5.2-1 .5-1.3l.3-.3V8.5s-.3-2.3 1.3-4.2C13.7 2.7 16 2 19.3 2c3.2 0 5.5.7 7 2.3.6.7 1 1.6 1 2.3v.6h.2v6.5l.2.3c.4.3.6.7.6 1.2v3.3c0 .7-.4 1.3-1 1.5l-.5.2-.2.4c-.5 1.7-1.3 3.3-2.3 4.7l-.7 1-.2.2v3.9l.2.6v.2l.3.5.3.6.2.3 1 .7 8 4c2 1 3 3 3 5v1.8zM48 44h-9.8v-1.6c0-3-1.5-5.4-4-6.7l-5.8-3c.2-.2.2-.5 0-1 0-.5-.7-1-1.3-1h-1.7l-.2-.4V27l.6-.8c1-1.5 2-3 2.5-4.8 1.2-.5 2-1.7 2-3V15c0-.7-.3-1.5-.8-2V6.8c1-.4 2.2-.6 3.5-.6 8 0 8.4 8 8.4 8.4.2 6.3 4 12.4 5.6 14.6.2.2.2.5.2.7 0 0-.2.3-.5.4-1.4.6-3.3.5-3.4.5h-5.7c-.5 0-1 0-1.3.6-.3.4-.3 1 0 1.4.2.6.7 1.3 1.4 1.6l8 3.6c1.8.8 2.8 2.5 2.8 4.4V44z" fill="#3f95ea" stroke="#3f95ea" stroke-width=".5" stroke-linejoin="round"/></svg><svg viewBox="-1 -1 52 48" width="52" height="48" id="parents-white" y="377"><path d="M46 36.7l-8-3.5c-.2 0-.4-.4-.6-.7h5.4s2.3.2 4-.5c.8-.3 1.3-.8 1.5-1.6.2-.7 0-1.4-.3-2-1.5-2.2-5.2-8-5.3-13.8 0 0-.3-10-10-10-1.5 0-2.8.2-4 .7-.3-.7-.7-1.4-1.3-2-1.6-2-4.4-3-8.2-3-3.7 0-6.4 1-8 3C9 5.4 9 8 9 8.5V13c-.4.6-.7 1.4-.7 2v3.4c0 1 .5 2 1.3 2.6.7 3 2.3 5.3 3 6v2.7c0 .8-.6 1.6-1.3 2l-7.4 4C1.8 37 .3 39.5.3 42.2v3.5H50v-3c0-2.6-1.5-5-3.7-6zM36.7 44H2v-1.8c0-2 1-4 3-5l7.3-4c1.3-.8 2-2 2-3.5v-3.3l-.2-.2s-2-2.5-2.7-6V20l-.3-.2c-.5-.3-.8-.8-.8-1.3v-3.3c0-.5.2-1 .5-1.3l.3-.3V8.5s-.3-2.3 1.3-4.2C13.7 2.7 16 2 19.3 2c3.2 0 5.5.7 7 2.3.6.7 1 1.6 1 2.3v.6h.2v6.5l.2.3c.4.3.6.7.6 1.2v3.3c0 .7-.4 1.3-1 1.5l-.5.2-.2.4c-.5 1.7-1.3 3.3-2.3 4.7l-.7 1-.2.2v3.9l.2.6v.2l.3.5.3.6.2.3 1 .7 8 4c2 1 3 3 3 5v1.8zM48 44h-9.8v-1.6c0-3-1.5-5.4-4-6.7l-5.8-3c.2-.2.2-.5 0-1 0-.5-.7-1-1.3-1h-1.7l-.2-.4V27l.6-.8c1-1.5 2-3 2.5-4.8 1.2-.5 2-1.7 2-3V15c0-.7-.3-1.5-.8-2V6.8c1-.4 2.2-.6 3.5-.6 8 0 8.4 8 8.4 8.4.2 6.3 4 12.4 5.6 14.6.2.2.2.5.2.7 0 0-.2.3-.5.4-1.4.6-3.3.5-3.4.5h-5.7c-.5 0-1 0-1.3.6-.3.4-.3 1 0 1.4.2.6.7 1.3 1.4 1.6l8 3.6c1.8.8 2.8 2.5 2.8 4.4V44z" fill="#fff" stroke="#fff" stroke-width=".5" stroke-linejoin="round"/></svg><svg viewBox="-1 -1 27 27" width="27" height="27" id="phone" y="425"><path d="M20 15.2c-1.3-1-2.4-.7-3.6 0L14.7 17 13 15.7c-1.6-1.4-2.5-2.2-4-3.8-.4-.6-1-1.2-1-1.7.5-.5 1-1.2 1.7-1.7 1-1.2 1-2.6 0-3.7l-3-3c-1.2-1-2.3-.7-3.5 0l-1.8 2c-.7.7-1 1.5-1 2.5-.3 1.5.2 3 .5 4 .8 2.2 2 4.3 4 6.6 2.3 2.7 5 4.8 8.3 6.4 1.2.5 2.8 1.2 4.6 1.3.6 0 1.4 0 2.8-1 1.3-1 2.2-2.2 2.7-2.8.3-.7.4-1.6-.6-2.8l-3-3zm.4 7.6c-1 .7-1.7 1-2.4 1-1.3 0-3.4-.7-4.5-1.3-2.8-1.4-5.3-3.4-7.7-6C3.6 14 2.5 12 1.8 10 1 8.5 1 7.4 1 6.4c0-.6.4-1.4.8-1.8l1.8-1.8c1-.7 1.5-.6 2.3 0 1.2.8 2 1.7 3 2.8 1 .8.7 1.6 0 2.2l-1.6 2c-.5.4-.4 1 0 1.5.7 1 1.5 2 2.8 3.2 2 1.7 1.7 1.6 3.6 3 .4 0 1 .7 1.7 0l1.6-1.7c1-.5 1.5-.4 2.2 0l3 3c.5.5.8 1.2.3 1.7l-2 2.3zM17.7 7.5c1 1 1.6 2 1.8 3.4 0 .2.2.8.6.8.6 0 .6-.6.7-.8-.3-1.7-1-3.2-2.3-4.4-1.3-1-2.7-2-4.4-2.3-.4 0-.7 0-.8.4 0 .5.6.5 1 .8 1 .5 2.8 1.3 3.5 2zm7.6 3.3c-.5-2.8-1.8-5.3-3.8-7.3-2-2-4.5-3.3-7.3-3.7-.4 0-.8 0-.8.5 0 .4.5.5.8.5 2.5.4 4.8 1.7 6.5 3.4 1.8 1.8 3 4 3.4 6.5.2.4.3 1 .7 1 .6 0 .4-.7.6-1z" fill="#818892"/></svg><svg viewBox="-1 -1 52 48" width="52" height="48" id="square" y="452"><path d="M31.7.3c-.4 0-.7.3-1 .8L16.5 41.6 9.7 25c-.2-.4-.5-.7-.8-.7H1.2c-.5 0-1 .6-1 1.3 0 .8.4 1.4 1 1.4h7l7.3 18c.4 1 1.4 1 1.7 0l15-42h16.5c.5 0 1-.6 1-1.3 0-.8-.5-1.4-1-1.4h-17zm0 16c-.6 0-1 .6-1 1.4 0 .3 0 .7.2 1l7.8 11-7.8 11c-.4.6-.4 1.4 0 2 .3.5 1 .5 1.3 0l8-11 7.8 11c.4.5 1 .5 1.4 0 .4-.5.4-1.4 0-2l-7.8-11 7.8-11c.4-.6.4-1.5 0-2-.2-.2-.4-.4-.7-.4-.3 0-.5.2-.7.4l-8 11-7.7-11c-.2-.2-.4-.4-.7-.4z" fill="#3f95ea" stroke="#3f95ea" stroke-width=".6" stroke-linejoin="round"/></svg><svg viewBox="-1 -1 52 48" width="52" height="48" id="square-white" y="500"><path d="M31.7.3c-.4 0-.7.3-1 .8L16.5 41.6 9.7 25c-.2-.4-.5-.7-.8-.7H1.2c-.5 0-1 .6-1 1.3 0 .8.4 1.4 1 1.4h7l7.3 18c.4 1 1.4 1 1.7 0l15-42h16.5c.5 0 1-.6 1-1.3 0-.8-.5-1.4-1-1.4h-17zm0 16c-.6 0-1 .6-1 1.4 0 .3 0 .7.2 1l7.8 11-7.8 11c-.4.6-.4 1.4 0 2 .3.5 1 .5 1.3 0l8-11 7.8 11c.4.5 1 .5 1.4 0 .4-.5.4-1.4 0-2l-7.8-11 7.8-11c.4-.6.4-1.5 0-2-.2-.2-.4-.4-.7-.4-.3 0-.5.2-.7.4l-8 11-7.7-11c-.2-.2-.4-.4-.7-.4z" fill="#fff" stroke="#fff" stroke-width=".6" stroke-linejoin="round"/></svg><svg viewBox="-1 -1 46 42" width="46" height="42" id="suitcase" y="548"><path d="M41.5 7.2H40V5h-7v2h-3V2.7c0-1.3-1-2.5-2.4-2.5H16.4C15 .2 14 1.2 14 2.7v4.5h-3V5H4v2H2.4C1.3 7.2.2 8.2.2 9.6v27.8c0 1.3 1 2.4 2.3 2.4h39c1.3 0 2.3-1 2.3-2.4V9.6c0-1.3-1-2.4-2.3-2.4zm-7.2-.8h4.4v.8h-4.4v-.8zM15.5 2.7c0-.5.4-1 1-1h11c.6 0 1 .5 1 1v4.5h-13V2.7zm-1.4 6h22.5v29.5h-29V8.8H14zM5.4 6.5h4.4v.8H5.3v-.8zm-3.6 31V9.6c0-.5.4-.8.8-.8H6v29.4H2.6c-.4 0-.8-.3-.8-.8zm40.6 0c0 .4-.4.8-.8.8H38V8.8h3.5c.4 0 .8.3.8.8v27.8z" fill="#3f95ea" stroke="#3f95ea" stroke-width=".5"/></svg><svg viewBox="-1 -1 26 22" width="26" height="22" id="vk" y="590"><path d="M22.9 19.9l-3.2.08s-.7.2-1.6-.7c-1.2-1.2-2.33-4.34-3.2-3.93-.9.4-.87 3.22-.87 3.22s0 .6-.2.92c-.22.34-.66.4-.66.4h-1.43s-3.16.3-5.95-3.95C2.74 11.32.06 2.15.06 2.15s-.16-.6 0-.9C.28.94.8.92.8.92L4.2.9s.32.08.55.33c.2.2.3.6.3.6s.55 2.05 1.28 3.9c1.43 3.6 2.1 4.4 2.6 4.02.7-.56.48-5.1.48-5.1s.02-1.66-.35-2.4c-.3-.56-.83-.73-1.06-.77-.2-.04.12-.7.53-1 .62-.44 1.7-.47 3-.45 1 0 1.3.12 1.68.24 1.18.42.78 2.04.78 5.9 0 1.24-.14 2.98.47 3.55.26.24.9.03 2.5-3.96.77-1.9 1.34-4.1 1.34-4.1s.14-.42.33-.58c.2-.17.47-.13.47-.13L22.7.9s1.1-.2 1.26.53c.2.76-.4 2.5-1.87 5.38-2.43 4.72-2.7 4.28-.7 7 1.93 2.6 2.32 3.88 2.4 4.04.77 1.92-.9 2.07-.9 2.07z" fill="#3f95ea"/></svg><svg viewBox="-1 -1 52 52" width="52" height="52" id="wrench" y="612"><path d="M31 31c-.3 0-.5.4-.5.8 0 .3.2.6.4.8 0 .2.4.4.7.4.4 0 .7-.2 1-.4l.2-1-.4-.7c-.3-.4-.6-.5-1-.5-.2 0-.6 0-.8.3zm7.3 7.4c-.4.4-.4 1.2 0 1.7.3.3.6.5 1 .5l.8-.4c.6-.3.6-1 0-1.6-.4-.5-1-.5-1.6 0zm-3.7-3.8c-.5.5-.5 1.3 0 1.8.3.2.6.3 1 .3.2 0 .5 0 .8-.3.5-.5.5-1.3 0-1.8-.5-.4-1.3-.4-1.8 0zm8.4 7.2c-.4 0-.7 0-1 .3l-.3 1c0 .3.2.6.4.8.3.3.6.4 1 .4.3 0 .6 0 .8-.4.3-.2.4-.5.4-.8 0-.3-.2-.7-.4-1L43 42z" fill="#fff" stroke="#fff" stroke-width=".5" stroke-linecap="round" stroke-linejoin="round"/><path d="M49.4 37.8L35.7 24c-1.2-1-1.8-2.8-1.5-4.5.7-5.3-1-10.5-5-14.3-1.8-2-4-3.3-6.7-4.2-2.5-.7-5.2-1-7.7-.6C14 .4 13.3 1 13 2c-.2.6 0 1.5.5 2l5 5c.8.8 1.2 2 1.2 3 0 1.4-.5 2.6-1.3 3.4l-3 3c-.8.8-2 1.3-3.2 1.3-1.2 0-2.4-.5-3.3-1.3l-5-4.8c-.5-.6-1.3-.8-2.2-.5C1 13.4.5 14 .4 15c-.4 2.4 0 5 .6 7.5 1 2.6 2.3 5 4.3 7 3.2 3 7.4 4.8 12 4.8h2.2c1.7-.3 3.4.3 4.6 1.5l13.7 13.6c.2.3.5.4 1 .4l.7-.4c.5-.5.5-1.2 0-1.7L26 34c-2-1.7-4.4-2.5-6.8-2.2-4.5.6-9-1-12.2-4.2-3-3-4.7-7.5-4.2-12l4.4 4.5c1.3 1.4 3 2.2 5 2.2 1.8 0 3.6-.8 5-2l3-3c1.2-1.4 2-3 2-5s-.8-3.6-2-5l-4.5-4.4c4.4-.5 8.8 1 12 4.2 3 3.2 4.7 7.7 4 12.2-.3 2.5.6 5 2.3 6.7l13.7 13.5c.4.5 1.2.5 1.7 0s.5-1.2 0-1.7z" fill="#fff" stroke="#fff" stroke-width=".5" stroke-linecap="round" stroke-linejoin="round"/></svg><svg viewBox="-1 -1 26 22" width="26" height="22" id="youtube" y="664"><path d="M14.73 13.88v2.36c0 .5-.17.74-.52.74-.2 0-.4-.08-.6-.24v-3.36c.2-.16.4-.25.6-.25.36 0 .53.25.53.75zm4.56 0v.53h-1.22v-.5c0-.5.2-.77.6-.77.4 0 .6.26.6.76zM6.25 11.47H7.7V10.4H3.5v1.06h1.4v6.35h1.36v-6.34zm3.9 6.35h1.2v-5.5h-1.2v4.22c-.28.3-.54.46-.78.46-.16 0-.26-.07-.3-.23V12.3h-1.2v4.36c0 .36.04.64.1.82.12.27.38.4.8.4.42 0 .88-.22 1.37-.67v.6zm5.77-1.64v-2.2c0-.54-.04-.9-.12-1.1-.14-.42-.46-.63-.95-.63-.45 0-.87.2-1.25.6V10.4h-1.2v7.4h1.2v-.53c.4.4.82.62 1.25.62.5 0 .8-.22.96-.63.1-.2.13-.57.13-1.1zm4.56-.1v-.16h-1.24c0 .38 0 .6-.02.68-.07.27-.25.4-.54.4-.42 0-.62-.25-.62-.77v-.96h2.4V14.1c0-.6-.1-1.03-.35-1.3-.35-.38-.83-.57-1.43-.57-.62 0-1.1.2-1.45.57-.25.28-.37.7-.37 1.3V16c0 .6.13 1.02.4 1.3.34.38.82.57 1.44.57.65 0 1.14-.2 1.46-.6.16-.2.26-.4.28-.6.02-.07.03-.3.03-.65zm-8.2-10.2V3.52c0-.52-.2-.77-.6-.77-.38 0-.57.25-.57.77v2.34c0 .52.2.78.58.78.4 0 .6-.26.6-.78zm9.7 8.38c0 1.3.1 2.66-.36 3.9-.5 1.1-1.4 1.5-2.16 1.62-1.3.22-4.15.24-7.5.24-3.32 0-5.82-.08-7.47-.24-1.14-.12-1.66-.77-2.15-1.62C2.12 17.3 2 16 2 14.24c0-1.74.12-3.04.35-3.9.4-1.08 1.26-1.57 2.17-1.64 1.65-.14 4.14-.22 7.47-.22s5.82.08 7.48.22c1.2.18 1.75.84 2.16 1.63.23.84.35 2.6.35 3.9zM8.52 0H9.9L8.27 4.45v3.03H6.92V4.45C6.8 3.9 6.52 3.1 6.1 2.1L5.22 0h1.43l.96 2.93zm5 3.72v1.95c0 .6-.14 1.04-.4 1.32-.32.36-.8.55-1.42.55-.6 0-1.06-.2-1.4-.56-.26-.3-.38-.74-.38-1.33V3.72c0-.6.12-1.03.37-1.3.34-.4.8-.58 1.4-.58.63 0 1.1.2 1.44.57.25.3.38.72.38 1.32zm4.5-1.8v5.56H16.8v-.62c-.47.46-.93.7-1.38.7-.4 0-.68-.14-.8-.42-.07-.18-.1-.46-.1-.83V1.9h1.22V6c0 .25 0 .38.02.4.02.16.12.24.28.24.24 0 .5-.16.77-.48V1.9z" fill="#3f95ea"/></svg></svg>